<mxfile host="app.diagrams.net" modified="2023-01-31T04:34:14.202Z" agent="5.0 (Windows NT 10.0; Win64; x64) AppleWebKit/537.36 (KHTML, like Gecko) Chrome/109.0.0.0 Safari/537.36" etag="7H4uiwTbuF1PIWpvJtN_" version="20.8.13" type="github">
  <diagram name="Page-1" id="-HlPm-YdwA1OcB9wNGtf">
    <mxGraphModel dx="1909" dy="1015" grid="1" gridSize="10" guides="1" tooltips="1" connect="1" arrows="1" fold="1" page="1" pageScale="1" pageWidth="850" pageHeight="1100" math="0" shadow="0">
      <root>
        <mxCell id="0" />
        <mxCell id="1" parent="0" />
        <mxCell id="m6tQJlwlJPIW91OM8USh-1" value="" style="whiteSpace=wrap;html=1;aspect=fixed;" vertex="1" parent="1">
          <mxGeometry x="170" y="30" width="1060" height="1060" as="geometry" />
        </mxCell>
        <mxCell id="m6tQJlwlJPIW91OM8USh-2" value="Guest" style="shape=umlActor;verticalLabelPosition=bottom;verticalAlign=top;html=1;outlineConnect=0;" vertex="1" parent="1">
          <mxGeometry x="60" y="80" width="30" height="60" as="geometry" />
        </mxCell>
        <mxCell id="m6tQJlwlJPIW91OM8USh-5" value="Member" style="shape=umlActor;verticalLabelPosition=bottom;verticalAlign=top;html=1;outlineConnect=0;" vertex="1" parent="1">
          <mxGeometry x="50" y="375" width="30" height="60" as="geometry" />
        </mxCell>
        <mxCell id="m6tQJlwlJPIW91OM8USh-6" value="Coach" style="shape=umlActor;verticalLabelPosition=bottom;verticalAlign=top;html=1;outlineConnect=0;" vertex="1" parent="1">
          <mxGeometry x="1260" y="860" width="31" height="60" as="geometry" />
        </mxCell>
        <mxCell id="m6tQJlwlJPIW91OM8USh-7" value="Supporter" style="shape=umlActor;verticalLabelPosition=bottom;verticalAlign=top;html=1;outlineConnect=0;" vertex="1" parent="1">
          <mxGeometry x="1290" y="140" width="31" height="60" as="geometry" />
        </mxCell>
        <mxCell id="m6tQJlwlJPIW91OM8USh-8" value="Admin" style="shape=umlActor;verticalLabelPosition=bottom;verticalAlign=top;html=1;outlineConnect=0;" vertex="1" parent="1">
          <mxGeometry x="1290" y="440" width="31" height="60" as="geometry" />
        </mxCell>
        <mxCell id="m6tQJlwlJPIW91OM8USh-17" style="edgeStyle=none;rounded=0;orthogonalLoop=1;jettySize=auto;html=1;fontSize=16;startArrow=none;startFill=0;endArrow=none;endFill=0;" edge="1" parent="1" source="m6tQJlwlJPIW91OM8USh-10" target="m6tQJlwlJPIW91OM8USh-2">
          <mxGeometry relative="1" as="geometry" />
        </mxCell>
        <mxCell id="m6tQJlwlJPIW91OM8USh-10" value="Login" style="ellipse;whiteSpace=wrap;html=1;" vertex="1" parent="1">
          <mxGeometry x="190" y="120" width="80" height="40" as="geometry" />
        </mxCell>
        <mxCell id="m6tQJlwlJPIW91OM8USh-11" value="Health App" style="text;html=1;strokeColor=none;fillColor=none;align=center;verticalAlign=middle;whiteSpace=wrap;rounded=0;fontStyle=1;fontSize=16;" vertex="1" parent="1">
          <mxGeometry x="603.75" width="130" height="30" as="geometry" />
        </mxCell>
        <mxCell id="m6tQJlwlJPIW91OM8USh-13" style="rounded=0;orthogonalLoop=1;jettySize=auto;html=1;entryX=1;entryY=0.5;entryDx=0;entryDy=0;fontSize=16;endArrow=block;endFill=0;" edge="1" parent="1" source="m6tQJlwlJPIW91OM8USh-12" target="m6tQJlwlJPIW91OM8USh-10">
          <mxGeometry relative="1" as="geometry" />
        </mxCell>
        <mxCell id="m6tQJlwlJPIW91OM8USh-12" value="Login with Google" style="ellipse;whiteSpace=wrap;html=1;" vertex="1" parent="1">
          <mxGeometry x="315" y="120" width="80" height="40" as="geometry" />
        </mxCell>
        <mxCell id="m6tQJlwlJPIW91OM8USh-18" style="edgeStyle=none;rounded=0;orthogonalLoop=1;jettySize=auto;html=1;fontSize=16;startArrow=none;startFill=0;endArrow=none;endFill=0;entryX=1;entryY=0.3333333333333333;entryDx=0;entryDy=0;entryPerimeter=0;" edge="1" parent="1" source="m6tQJlwlJPIW91OM8USh-19" target="m6tQJlwlJPIW91OM8USh-2">
          <mxGeometry relative="1" as="geometry">
            <mxPoint x="90" y="122.90322580645164" as="targetPoint" />
          </mxGeometry>
        </mxCell>
        <mxCell id="m6tQJlwlJPIW91OM8USh-19" value="Register" style="ellipse;whiteSpace=wrap;html=1;" vertex="1" parent="1">
          <mxGeometry x="190" y="70" width="80" height="40" as="geometry" />
        </mxCell>
        <mxCell id="m6tQJlwlJPIW91OM8USh-20" style="rounded=0;orthogonalLoop=1;jettySize=auto;html=1;entryX=1;entryY=0.5;entryDx=0;entryDy=0;fontSize=16;endArrow=block;endFill=0;" edge="1" parent="1" source="m6tQJlwlJPIW91OM8USh-21" target="m6tQJlwlJPIW91OM8USh-19">
          <mxGeometry relative="1" as="geometry" />
        </mxCell>
        <mxCell id="m6tQJlwlJPIW91OM8USh-21" value="Register with Google" style="ellipse;whiteSpace=wrap;html=1;" vertex="1" parent="1">
          <mxGeometry x="310" y="70" width="90" height="40" as="geometry" />
        </mxCell>
        <mxCell id="m6tQJlwlJPIW91OM8USh-23" style="edgeStyle=none;rounded=0;orthogonalLoop=1;jettySize=auto;html=1;entryX=1;entryY=0.3333333333333333;entryDx=0;entryDy=0;entryPerimeter=0;fontSize=16;startArrow=none;startFill=0;endArrow=none;endFill=0;exitX=0.047;exitY=0.676;exitDx=0;exitDy=0;exitPerimeter=0;" edge="1" parent="1" source="m6tQJlwlJPIW91OM8USh-22" target="m6tQJlwlJPIW91OM8USh-5">
          <mxGeometry relative="1" as="geometry" />
        </mxCell>
        <mxCell id="m6tQJlwlJPIW91OM8USh-22" value="Write health blogs" style="ellipse;whiteSpace=wrap;html=1;fontSize=12;" vertex="1" parent="1">
          <mxGeometry x="215" y="183" width="130" height="40" as="geometry" />
        </mxCell>
        <mxCell id="m6tQJlwlJPIW91OM8USh-107" style="edgeStyle=none;rounded=0;orthogonalLoop=1;jettySize=auto;html=1;fontSize=12;startArrow=none;startFill=0;endArrow=none;endFill=0;exitX=0;exitY=0;exitDx=0;exitDy=0;" edge="1" parent="1" source="m6tQJlwlJPIW91OM8USh-24" target="m6tQJlwlJPIW91OM8USh-5">
          <mxGeometry relative="1" as="geometry" />
        </mxCell>
        <mxCell id="m6tQJlwlJPIW91OM8USh-24" value="Get reminder notification" style="ellipse;whiteSpace=wrap;html=1;fontSize=12;" vertex="1" parent="1">
          <mxGeometry x="220" y="900" width="150" height="40" as="geometry" />
        </mxCell>
        <mxCell id="m6tQJlwlJPIW91OM8USh-104" style="edgeStyle=none;rounded=0;orthogonalLoop=1;jettySize=auto;html=1;fontSize=12;startArrow=none;startFill=0;endArrow=none;endFill=0;" edge="1" parent="1" source="m6tQJlwlJPIW91OM8USh-25" target="m6tQJlwlJPIW91OM8USh-5">
          <mxGeometry relative="1" as="geometry" />
        </mxCell>
        <mxCell id="m6tQJlwlJPIW91OM8USh-25" value="Track portions" style="ellipse;whiteSpace=wrap;html=1;fontSize=12;" vertex="1" parent="1">
          <mxGeometry x="215" y="340" width="130" height="40" as="geometry" />
        </mxCell>
        <mxCell id="m6tQJlwlJPIW91OM8USh-30" style="edgeStyle=none;rounded=0;orthogonalLoop=1;jettySize=auto;html=1;exitX=0;exitY=0.5;exitDx=0;exitDy=0;entryX=1;entryY=0.5;entryDx=0;entryDy=0;fontSize=16;startArrow=none;startFill=0;endArrow=openThin;endFill=0;dashed=1;" edge="1" parent="1" source="m6tQJlwlJPIW91OM8USh-26" target="m6tQJlwlJPIW91OM8USh-25">
          <mxGeometry relative="1" as="geometry" />
        </mxCell>
        <mxCell id="m6tQJlwlJPIW91OM8USh-26" value="Take food pictures" style="ellipse;whiteSpace=wrap;html=1;fontSize=12;" vertex="1" parent="1">
          <mxGeometry x="445" y="320" width="150" height="40" as="geometry" />
        </mxCell>
        <mxCell id="m6tQJlwlJPIW91OM8USh-33" style="edgeStyle=none;rounded=0;orthogonalLoop=1;jettySize=auto;html=1;dashed=1;fontSize=16;startArrow=none;startFill=0;endArrow=openThin;endFill=0;" edge="1" parent="1" source="m6tQJlwlJPIW91OM8USh-28" target="m6tQJlwlJPIW91OM8USh-25">
          <mxGeometry relative="1" as="geometry" />
        </mxCell>
        <mxCell id="m6tQJlwlJPIW91OM8USh-28" value="Input food intakes" style="ellipse;whiteSpace=wrap;html=1;fontSize=12;" vertex="1" parent="1">
          <mxGeometry x="450" y="370" width="150" height="40" as="geometry" />
        </mxCell>
        <mxCell id="m6tQJlwlJPIW91OM8USh-105" style="edgeStyle=none;rounded=0;orthogonalLoop=1;jettySize=auto;html=1;fontSize=12;startArrow=none;startFill=0;endArrow=none;endFill=0;" edge="1" parent="1" source="m6tQJlwlJPIW91OM8USh-34" target="m6tQJlwlJPIW91OM8USh-5">
          <mxGeometry relative="1" as="geometry" />
        </mxCell>
        <mxCell id="m6tQJlwlJPIW91OM8USh-34" value="View health blogs" style="ellipse;whiteSpace=wrap;html=1;fontSize=12;" vertex="1" parent="1">
          <mxGeometry x="220" y="460" width="140" height="40" as="geometry" />
        </mxCell>
        <mxCell id="m6tQJlwlJPIW91OM8USh-38" value="&amp;lt;&amp;lt;extends&amp;gt;&amp;gt;" style="text;html=1;strokeColor=none;fillColor=none;align=center;verticalAlign=middle;whiteSpace=wrap;rounded=0;fontSize=12;" vertex="1" parent="1">
          <mxGeometry x="359" y="325" width="60" height="30" as="geometry" />
        </mxCell>
        <mxCell id="m6tQJlwlJPIW91OM8USh-40" value="&amp;lt;&amp;lt;includes&amp;gt;&amp;gt;" style="text;html=1;strokeColor=none;fillColor=none;align=center;verticalAlign=middle;whiteSpace=wrap;rounded=0;fontSize=12;" vertex="1" parent="1">
          <mxGeometry x="365" y="370" width="60" height="30" as="geometry" />
        </mxCell>
        <mxCell id="m6tQJlwlJPIW91OM8USh-67" style="edgeStyle=none;rounded=0;orthogonalLoop=1;jettySize=auto;html=1;fontSize=12;startArrow=none;startFill=0;endArrow=block;endFill=0;" edge="1" parent="1" source="m6tQJlwlJPIW91OM8USh-41" target="m6tQJlwlJPIW91OM8USh-34">
          <mxGeometry relative="1" as="geometry" />
        </mxCell>
        <mxCell id="m6tQJlwlJPIW91OM8USh-41" value="View recipes" style="ellipse;whiteSpace=wrap;html=1;fontSize=12;" vertex="1" parent="1">
          <mxGeometry x="455" y="430" width="135" height="40" as="geometry" />
        </mxCell>
        <mxCell id="m6tQJlwlJPIW91OM8USh-51" style="edgeStyle=none;rounded=0;orthogonalLoop=1;jettySize=auto;html=1;fontSize=12;startArrow=none;startFill=0;endArrow=block;endFill=0;" edge="1" parent="1" source="m6tQJlwlJPIW91OM8USh-42" target="m6tQJlwlJPIW91OM8USh-41">
          <mxGeometry relative="1" as="geometry" />
        </mxCell>
        <mxCell id="m6tQJlwlJPIW91OM8USh-42" value="View ingredients" style="ellipse;whiteSpace=wrap;html=1;fontSize=12;" vertex="1" parent="1">
          <mxGeometry x="630" y="390" width="135" height="30" as="geometry" />
        </mxCell>
        <mxCell id="m6tQJlwlJPIW91OM8USh-52" style="edgeStyle=none;rounded=0;orthogonalLoop=1;jettySize=auto;html=1;fontSize=12;startArrow=none;startFill=0;endArrow=block;endFill=0;" edge="1" parent="1" source="m6tQJlwlJPIW91OM8USh-43" target="m6tQJlwlJPIW91OM8USh-41">
          <mxGeometry relative="1" as="geometry" />
        </mxCell>
        <mxCell id="m6tQJlwlJPIW91OM8USh-43" value="View cooking steps" style="ellipse;whiteSpace=wrap;html=1;fontSize=12;" vertex="1" parent="1">
          <mxGeometry x="630" y="430" width="135" height="40" as="geometry" />
        </mxCell>
        <mxCell id="m6tQJlwlJPIW91OM8USh-68" style="edgeStyle=none;rounded=0;orthogonalLoop=1;jettySize=auto;html=1;entryX=1;entryY=1;entryDx=0;entryDy=0;fontSize=12;startArrow=none;startFill=0;endArrow=block;endFill=0;" edge="1" parent="1" source="m6tQJlwlJPIW91OM8USh-44" target="m6tQJlwlJPIW91OM8USh-34">
          <mxGeometry relative="1" as="geometry" />
        </mxCell>
        <mxCell id="m6tQJlwlJPIW91OM8USh-44" value="View workouts" style="ellipse;whiteSpace=wrap;html=1;fontSize=12;" vertex="1" parent="1">
          <mxGeometry x="460" y="550" width="135" height="40" as="geometry" />
        </mxCell>
        <mxCell id="m6tQJlwlJPIW91OM8USh-54" style="edgeStyle=none;rounded=0;orthogonalLoop=1;jettySize=auto;html=1;entryX=0.981;entryY=0.414;entryDx=0;entryDy=0;fontSize=12;startArrow=none;startFill=0;endArrow=block;endFill=0;entryPerimeter=0;" edge="1" parent="1" source="m6tQJlwlJPIW91OM8USh-45" target="m6tQJlwlJPIW91OM8USh-44">
          <mxGeometry relative="1" as="geometry" />
        </mxCell>
        <mxCell id="m6tQJlwlJPIW91OM8USh-45" value="View guidance" style="ellipse;whiteSpace=wrap;html=1;fontSize=12;" vertex="1" parent="1">
          <mxGeometry x="630" y="525" width="135" height="30" as="geometry" />
        </mxCell>
        <mxCell id="m6tQJlwlJPIW91OM8USh-113" style="edgeStyle=none;rounded=0;orthogonalLoop=1;jettySize=auto;html=1;fontSize=12;startArrow=none;startFill=0;endArrow=none;endFill=0;" edge="1" parent="1" source="m6tQJlwlJPIW91OM8USh-46" target="m6tQJlwlJPIW91OM8USh-5">
          <mxGeometry relative="1" as="geometry" />
        </mxCell>
        <mxCell id="m6tQJlwlJPIW91OM8USh-46" value="Manage settings/profile" style="ellipse;whiteSpace=wrap;html=1;fontSize=12;" vertex="1" parent="1">
          <mxGeometry x="220" y="780" width="140" height="40" as="geometry" />
        </mxCell>
        <mxCell id="m6tQJlwlJPIW91OM8USh-55" style="edgeStyle=none;rounded=0;orthogonalLoop=1;jettySize=auto;html=1;fontSize=12;startArrow=none;startFill=0;endArrow=block;endFill=0;" edge="1" parent="1" source="m6tQJlwlJPIW91OM8USh-47" target="m6tQJlwlJPIW91OM8USh-46">
          <mxGeometry relative="1" as="geometry" />
        </mxCell>
        <mxCell id="m6tQJlwlJPIW91OM8USh-47" value="Edit health profile" style="ellipse;whiteSpace=wrap;html=1;fontSize=12;" vertex="1" parent="1">
          <mxGeometry x="463.75" y="780" width="140" height="40" as="geometry" />
        </mxCell>
        <mxCell id="m6tQJlwlJPIW91OM8USh-56" style="edgeStyle=none;rounded=0;orthogonalLoop=1;jettySize=auto;html=1;fontSize=12;startArrow=none;startFill=0;endArrow=block;endFill=0;" edge="1" parent="1" source="m6tQJlwlJPIW91OM8USh-49" target="m6tQJlwlJPIW91OM8USh-46">
          <mxGeometry relative="1" as="geometry" />
        </mxCell>
        <mxCell id="m6tQJlwlJPIW91OM8USh-49" value="Customize goals" style="ellipse;whiteSpace=wrap;html=1;fontSize=12;" vertex="1" parent="1">
          <mxGeometry x="463.75" y="831" width="140" height="40" as="geometry" />
        </mxCell>
        <mxCell id="m6tQJlwlJPIW91OM8USh-106" style="edgeStyle=none;rounded=0;orthogonalLoop=1;jettySize=auto;html=1;fontSize=12;startArrow=none;startFill=0;endArrow=none;endFill=0;" edge="1" parent="1" source="m6tQJlwlJPIW91OM8USh-57">
          <mxGeometry relative="1" as="geometry">
            <mxPoint x="80" y="420" as="targetPoint" />
          </mxGeometry>
        </mxCell>
        <mxCell id="m6tQJlwlJPIW91OM8USh-57" value="Count down exercise time" style="ellipse;whiteSpace=wrap;html=1;fontSize=12;" vertex="1" parent="1">
          <mxGeometry x="225" y="600" width="140" height="40" as="geometry" />
        </mxCell>
        <mxCell id="m6tQJlwlJPIW91OM8USh-59" style="edgeStyle=none;rounded=0;orthogonalLoop=1;jettySize=auto;html=1;fontSize=12;startArrow=none;startFill=0;endArrow=block;endFill=0;" edge="1" parent="1" source="m6tQJlwlJPIW91OM8USh-58" target="m6tQJlwlJPIW91OM8USh-41">
          <mxGeometry relative="1" as="geometry" />
        </mxCell>
        <mxCell id="m6tQJlwlJPIW91OM8USh-58" value="View nutrients" style="ellipse;whiteSpace=wrap;html=1;fontSize=12;" vertex="1" parent="1">
          <mxGeometry x="630" y="480" width="135" height="30" as="geometry" />
        </mxCell>
        <mxCell id="m6tQJlwlJPIW91OM8USh-69" style="edgeStyle=none;rounded=0;orthogonalLoop=1;jettySize=auto;html=1;fontSize=12;startArrow=none;startFill=0;endArrow=block;endFill=0;entryX=1;entryY=0.5;entryDx=0;entryDy=0;exitX=0.039;exitY=0.32;exitDx=0;exitDy=0;exitPerimeter=0;" edge="1" parent="1" source="m6tQJlwlJPIW91OM8USh-61" target="m6tQJlwlJPIW91OM8USh-34">
          <mxGeometry relative="1" as="geometry" />
        </mxCell>
        <mxCell id="m6tQJlwlJPIW91OM8USh-61" value="View wellness tips" style="ellipse;whiteSpace=wrap;html=1;fontSize=12;" vertex="1" parent="1">
          <mxGeometry x="457.5" y="490" width="135" height="40" as="geometry" />
        </mxCell>
        <mxCell id="m6tQJlwlJPIW91OM8USh-103" style="edgeStyle=none;rounded=0;orthogonalLoop=1;jettySize=auto;html=1;fontSize=12;startArrow=none;startFill=0;endArrow=none;endFill=0;" edge="1" parent="1" source="m6tQJlwlJPIW91OM8USh-63" target="m6tQJlwlJPIW91OM8USh-5">
          <mxGeometry relative="1" as="geometry" />
        </mxCell>
        <mxCell id="m6tQJlwlJPIW91OM8USh-63" value="View health history" style="ellipse;whiteSpace=wrap;html=1;fontSize=12;" vertex="1" parent="1">
          <mxGeometry x="210" y="270" width="135" height="40" as="geometry" />
        </mxCell>
        <mxCell id="m6tQJlwlJPIW91OM8USh-72" style="edgeStyle=none;rounded=0;orthogonalLoop=1;jettySize=auto;html=1;entryX=0.987;entryY=0.571;entryDx=0;entryDy=0;entryPerimeter=0;fontSize=12;startArrow=none;startFill=0;endArrow=block;endFill=0;" edge="1" parent="1" source="m6tQJlwlJPIW91OM8USh-71" target="m6tQJlwlJPIW91OM8USh-44">
          <mxGeometry relative="1" as="geometry" />
        </mxCell>
        <mxCell id="m6tQJlwlJPIW91OM8USh-71" value="View calories burn/Intensity" style="ellipse;whiteSpace=wrap;html=1;fontSize=12;" vertex="1" parent="1">
          <mxGeometry x="630" y="570" width="135" height="40" as="geometry" />
        </mxCell>
        <mxCell id="m6tQJlwlJPIW91OM8USh-86" style="edgeStyle=none;rounded=0;orthogonalLoop=1;jettySize=auto;html=1;entryX=0.993;entryY=0.59;entryDx=0;entryDy=0;entryPerimeter=0;dashed=1;fontSize=12;startArrow=none;startFill=0;endArrow=openThin;endFill=0;" edge="1" parent="1" source="m6tQJlwlJPIW91OM8USh-73" target="m6tQJlwlJPIW91OM8USh-57">
          <mxGeometry relative="1" as="geometry" />
        </mxCell>
        <mxCell id="m6tQJlwlJPIW91OM8USh-73" value="Set timer" style="ellipse;whiteSpace=wrap;html=1;fontSize=12;" vertex="1" parent="1">
          <mxGeometry x="470" y="664" width="127.5" height="30" as="geometry" />
        </mxCell>
        <mxCell id="m6tQJlwlJPIW91OM8USh-87" style="edgeStyle=none;rounded=0;orthogonalLoop=1;jettySize=auto;html=1;entryX=0.947;entryY=0.813;entryDx=0;entryDy=0;entryPerimeter=0;dashed=1;fontSize=12;startArrow=none;startFill=0;endArrow=openThin;endFill=0;exitX=0.089;exitY=0.238;exitDx=0;exitDy=0;exitPerimeter=0;" edge="1" parent="1" source="m6tQJlwlJPIW91OM8USh-75" target="m6tQJlwlJPIW91OM8USh-57">
          <mxGeometry relative="1" as="geometry" />
        </mxCell>
        <mxCell id="m6tQJlwlJPIW91OM8USh-75" value="View progress %" style="ellipse;whiteSpace=wrap;html=1;fontSize=12;" vertex="1" parent="1">
          <mxGeometry x="463.75" y="700" width="140" height="30" as="geometry" />
        </mxCell>
        <mxCell id="m6tQJlwlJPIW91OM8USh-85" style="edgeStyle=none;rounded=0;orthogonalLoop=1;jettySize=auto;html=1;entryX=0.992;entryY=0.382;entryDx=0;entryDy=0;entryPerimeter=0;fontSize=12;startArrow=none;startFill=0;endArrow=openThin;endFill=0;dashed=1;" edge="1" parent="1" source="m6tQJlwlJPIW91OM8USh-76" target="m6tQJlwlJPIW91OM8USh-57">
          <mxGeometry relative="1" as="geometry" />
        </mxCell>
        <mxCell id="m6tQJlwlJPIW91OM8USh-88" style="edgeStyle=none;rounded=0;orthogonalLoop=1;jettySize=auto;html=1;entryX=0.538;entryY=0.98;entryDx=0;entryDy=0;entryPerimeter=0;dashed=1;fontSize=12;startArrow=none;startFill=0;endArrow=openThin;endFill=0;" edge="1" parent="1" source="m6tQJlwlJPIW91OM8USh-76" target="m6tQJlwlJPIW91OM8USh-44">
          <mxGeometry relative="1" as="geometry" />
        </mxCell>
        <mxCell id="m6tQJlwlJPIW91OM8USh-76" value="Select workouts" style="ellipse;whiteSpace=wrap;html=1;fontSize=12;" vertex="1" parent="1">
          <mxGeometry x="463.75" y="625" width="140" height="30" as="geometry" />
        </mxCell>
        <mxCell id="m6tQJlwlJPIW91OM8USh-89" style="edgeStyle=none;rounded=0;orthogonalLoop=1;jettySize=auto;html=1;dashed=1;fontSize=12;startArrow=none;startFill=0;endArrow=openThin;endFill=0;exitX=0.014;exitY=0.322;exitDx=0;exitDy=0;exitPerimeter=0;entryX=0.864;entryY=0.895;entryDx=0;entryDy=0;entryPerimeter=0;" edge="1" parent="1" source="m6tQJlwlJPIW91OM8USh-77" target="m6tQJlwlJPIW91OM8USh-57">
          <mxGeometry relative="1" as="geometry" />
        </mxCell>
        <mxCell id="m6tQJlwlJPIW91OM8USh-77" value="View countdown time" style="ellipse;whiteSpace=wrap;html=1;fontSize=12;" vertex="1" parent="1">
          <mxGeometry x="463.75" y="740" width="140" height="30" as="geometry" />
        </mxCell>
        <mxCell id="m6tQJlwlJPIW91OM8USh-83" style="edgeStyle=none;rounded=0;orthogonalLoop=1;jettySize=auto;html=1;fontSize=12;startArrow=none;startFill=0;endArrow=block;endFill=0;" edge="1" parent="1" source="m6tQJlwlJPIW91OM8USh-78" target="m6tQJlwlJPIW91OM8USh-63">
          <mxGeometry relative="1" as="geometry" />
        </mxCell>
        <mxCell id="m6tQJlwlJPIW91OM8USh-78" value="View completed workouts" style="ellipse;whiteSpace=wrap;html=1;fontSize=12;" vertex="1" parent="1">
          <mxGeometry x="442.5" y="223" width="150" height="40" as="geometry" />
        </mxCell>
        <mxCell id="m6tQJlwlJPIW91OM8USh-84" style="edgeStyle=none;rounded=0;orthogonalLoop=1;jettySize=auto;html=1;fontSize=12;startArrow=none;startFill=0;endArrow=block;endFill=0;" edge="1" parent="1" source="m6tQJlwlJPIW91OM8USh-79" target="m6tQJlwlJPIW91OM8USh-63">
          <mxGeometry relative="1" as="geometry" />
        </mxCell>
        <mxCell id="m6tQJlwlJPIW91OM8USh-79" value="View tracked meals" style="ellipse;whiteSpace=wrap;html=1;fontSize=12;" vertex="1" parent="1">
          <mxGeometry x="442.5" y="270" width="150" height="40" as="geometry" />
        </mxCell>
        <mxCell id="m6tQJlwlJPIW91OM8USh-108" style="edgeStyle=none;rounded=0;orthogonalLoop=1;jettySize=auto;html=1;fontSize=12;startArrow=none;startFill=0;endArrow=none;endFill=0;exitX=0;exitY=0.5;exitDx=0;exitDy=0;" edge="1" parent="1" source="m6tQJlwlJPIW91OM8USh-90" target="m6tQJlwlJPIW91OM8USh-5">
          <mxGeometry relative="1" as="geometry" />
        </mxCell>
        <mxCell id="m6tQJlwlJPIW91OM8USh-90" value="Chat with coach" style="ellipse;whiteSpace=wrap;html=1;fontSize=12;" vertex="1" parent="1">
          <mxGeometry x="230" y="970" width="140" height="40" as="geometry" />
        </mxCell>
        <mxCell id="m6tQJlwlJPIW91OM8USh-101" style="edgeStyle=none;rounded=0;orthogonalLoop=1;jettySize=auto;html=1;entryX=0.805;entryY=0.868;entryDx=0;entryDy=0;entryPerimeter=0;fontSize=12;startArrow=none;startFill=0;endArrow=block;endFill=0;exitX=0;exitY=0;exitDx=0;exitDy=0;" edge="1" parent="1" source="m6tQJlwlJPIW91OM8USh-91" target="m6tQJlwlJPIW91OM8USh-46">
          <mxGeometry relative="1" as="geometry" />
        </mxCell>
        <mxCell id="m6tQJlwlJPIW91OM8USh-91" value="Customize reminder" style="ellipse;whiteSpace=wrap;html=1;fontSize=12;" vertex="1" parent="1">
          <mxGeometry x="470" y="890" width="140" height="40" as="geometry" />
        </mxCell>
        <mxCell id="m6tQJlwlJPIW91OM8USh-93" value="Health blog:&lt;br&gt;edit? format? up/down vote? comment? bookmarks? tag? types (workout/eating...), report" style="shape=card;whiteSpace=wrap;html=1;fontSize=12;fillColor=#fff2cc;strokeColor=#d6b656;" vertex="1" parent="1">
          <mxGeometry x="330" y="162" width="270" height="53" as="geometry" />
        </mxCell>
        <mxCell id="m6tQJlwlJPIW91OM8USh-94" value="&amp;lt;&amp;lt;extends&amp;gt;&amp;gt;" style="text;html=1;strokeColor=none;fillColor=none;align=center;verticalAlign=middle;whiteSpace=wrap;rounded=0;fontSize=12;" vertex="1" parent="1">
          <mxGeometry x="540" y="595" width="60" height="30" as="geometry" />
        </mxCell>
        <mxCell id="m6tQJlwlJPIW91OM8USh-95" value="&amp;lt;&amp;lt;includes&amp;gt;&amp;gt;" style="text;html=1;strokeColor=none;fillColor=none;align=center;verticalAlign=middle;whiteSpace=wrap;rounded=0;fontSize=12;" vertex="1" parent="1">
          <mxGeometry x="398.5" y="601" width="60" height="30" as="geometry" />
        </mxCell>
        <mxCell id="m6tQJlwlJPIW91OM8USh-96" value="&amp;lt;&amp;lt;includes&amp;gt;&amp;gt;" style="text;html=1;strokeColor=none;fillColor=none;align=center;verticalAlign=middle;whiteSpace=wrap;rounded=0;fontSize=12;" vertex="1" parent="1">
          <mxGeometry x="401" y="625" width="60" height="30" as="geometry" />
        </mxCell>
        <mxCell id="m6tQJlwlJPIW91OM8USh-97" value="&amp;lt;&amp;lt;includes&amp;gt;&amp;gt;" style="text;html=1;strokeColor=none;fillColor=none;align=center;verticalAlign=middle;whiteSpace=wrap;rounded=0;fontSize=12;" vertex="1" parent="1">
          <mxGeometry x="403.5" y="659" width="60" height="30" as="geometry" />
        </mxCell>
        <mxCell id="m6tQJlwlJPIW91OM8USh-98" value="&amp;lt;&amp;lt;includes&amp;gt;&amp;gt;" style="text;html=1;strokeColor=none;fillColor=none;align=center;verticalAlign=middle;whiteSpace=wrap;rounded=0;fontSize=12;" vertex="1" parent="1">
          <mxGeometry x="382.5" y="700" width="60" height="30" as="geometry" />
        </mxCell>
        <mxCell id="m6tQJlwlJPIW91OM8USh-102" value="I removed the calories tracking (between meal - workout), but we can include it" style="shape=card;whiteSpace=wrap;html=1;fontSize=12;fillColor=#fff2cc;strokeColor=#d6b656;" vertex="1" parent="1">
          <mxGeometry x="210" y="370" width="120" height="70" as="geometry" />
        </mxCell>
        <mxCell id="m6tQJlwlJPIW91OM8USh-159" style="edgeStyle=none;rounded=0;orthogonalLoop=1;jettySize=auto;html=1;fontSize=12;startArrow=none;startFill=0;endArrow=none;endFill=0;" edge="1" parent="1" source="m6tQJlwlJPIW91OM8USh-109" target="m6tQJlwlJPIW91OM8USh-6">
          <mxGeometry relative="1" as="geometry" />
        </mxCell>
        <mxCell id="m6tQJlwlJPIW91OM8USh-109" value="Manage member list" style="ellipse;whiteSpace=wrap;html=1;fontSize=12;" vertex="1" parent="1">
          <mxGeometry x="915" y="850" width="140" height="40" as="geometry" />
        </mxCell>
        <mxCell id="m6tQJlwlJPIW91OM8USh-117" style="edgeStyle=none;rounded=0;orthogonalLoop=1;jettySize=auto;html=1;fontSize=12;startArrow=none;startFill=0;endArrow=none;endFill=0;exitX=0;exitY=0.5;exitDx=0;exitDy=0;" edge="1" parent="1" source="m6tQJlwlJPIW91OM8USh-114" target="m6tQJlwlJPIW91OM8USh-5">
          <mxGeometry relative="1" as="geometry" />
        </mxCell>
        <mxCell id="m6tQJlwlJPIW91OM8USh-114" value="Purchase premium" style="ellipse;whiteSpace=wrap;html=1;fontSize=12;" vertex="1" parent="1">
          <mxGeometry x="220" y="1040" width="140" height="40" as="geometry" />
        </mxCell>
        <mxCell id="m6tQJlwlJPIW91OM8USh-160" style="edgeStyle=none;rounded=0;orthogonalLoop=1;jettySize=auto;html=1;fontSize=12;startArrow=none;startFill=0;endArrow=none;endFill=0;" edge="1" parent="1" source="m6tQJlwlJPIW91OM8USh-115" target="m6tQJlwlJPIW91OM8USh-6">
          <mxGeometry relative="1" as="geometry" />
        </mxCell>
        <mxCell id="m6tQJlwlJPIW91OM8USh-115" value="Report member" style="ellipse;whiteSpace=wrap;html=1;fontSize=12;" vertex="1" parent="1">
          <mxGeometry x="910" y="790" width="140" height="30" as="geometry" />
        </mxCell>
        <mxCell id="m6tQJlwlJPIW91OM8USh-158" style="edgeStyle=none;rounded=0;orthogonalLoop=1;jettySize=auto;html=1;fontSize=12;startArrow=none;startFill=0;endArrow=none;endFill=0;" edge="1" parent="1" source="m6tQJlwlJPIW91OM8USh-116" target="m6tQJlwlJPIW91OM8USh-6">
          <mxGeometry relative="1" as="geometry" />
        </mxCell>
        <mxCell id="m6tQJlwlJPIW91OM8USh-116" value="Chat with members" style="ellipse;whiteSpace=wrap;html=1;fontSize=12;" vertex="1" parent="1">
          <mxGeometry x="915" y="900" width="140" height="40" as="geometry" />
        </mxCell>
        <mxCell id="m6tQJlwlJPIW91OM8USh-111" value="???" style="shape=card;whiteSpace=wrap;html=1;fontSize=12;fillColor=#fff2cc;strokeColor=#d6b656;" vertex="1" parent="1">
          <mxGeometry x="316.5" y="1060" width="78.5" height="40" as="geometry" />
        </mxCell>
        <mxCell id="m6tQJlwlJPIW91OM8USh-162" style="edgeStyle=none;rounded=0;orthogonalLoop=1;jettySize=auto;html=1;fontSize=12;startArrow=none;startFill=0;endArrow=none;endFill=0;" edge="1" parent="1" source="m6tQJlwlJPIW91OM8USh-119" target="m6tQJlwlJPIW91OM8USh-6">
          <mxGeometry relative="1" as="geometry" />
        </mxCell>
        <mxCell id="m6tQJlwlJPIW91OM8USh-119" value="Track members&#39; progress" style="ellipse;whiteSpace=wrap;html=1;fontSize=12;" vertex="1" parent="1">
          <mxGeometry x="910" y="980" width="150" height="40" as="geometry" />
        </mxCell>
        <mxCell id="m6tQJlwlJPIW91OM8USh-157" style="edgeStyle=none;rounded=0;orthogonalLoop=1;jettySize=auto;html=1;fontSize=12;startArrow=none;startFill=0;endArrow=open;endFill=0;dashed=1;" edge="1" parent="1" source="m6tQJlwlJPIW91OM8USh-120" target="m6tQJlwlJPIW91OM8USh-116">
          <mxGeometry relative="1" as="geometry" />
        </mxCell>
        <mxCell id="m6tQJlwlJPIW91OM8USh-120" value="Choose formatted replies" style="ellipse;whiteSpace=wrap;html=1;fontSize=12;" vertex="1" parent="1">
          <mxGeometry x="733.75" y="900" width="140" height="40" as="geometry" />
        </mxCell>
        <mxCell id="m6tQJlwlJPIW91OM8USh-123" value="Manage is like what?" style="shape=card;whiteSpace=wrap;html=1;fontSize=12;fillColor=#fff2cc;strokeColor=#d6b656;" vertex="1" parent="1">
          <mxGeometry x="1050" y="825" width="78.5" height="40" as="geometry" />
        </mxCell>
        <mxCell id="m6tQJlwlJPIW91OM8USh-131" style="edgeStyle=none;rounded=0;orthogonalLoop=1;jettySize=auto;html=1;fontSize=12;startArrow=none;startFill=0;endArrow=none;endFill=0;" edge="1" parent="1" source="m6tQJlwlJPIW91OM8USh-124" target="m6tQJlwlJPIW91OM8USh-8">
          <mxGeometry relative="1" as="geometry" />
        </mxCell>
        <mxCell id="m6tQJlwlJPIW91OM8USh-124" value="Manage account" style="ellipse;whiteSpace=wrap;html=1;fontSize=12;" vertex="1" parent="1">
          <mxGeometry x="1040" y="450" width="140" height="30" as="geometry" />
        </mxCell>
        <mxCell id="m6tQJlwlJPIW91OM8USh-155" style="edgeStyle=none;rounded=0;orthogonalLoop=1;jettySize=auto;html=1;fontSize=12;startArrow=none;startFill=0;endArrow=block;endFill=0;" edge="1" parent="1" source="m6tQJlwlJPIW91OM8USh-125" target="m6tQJlwlJPIW91OM8USh-124">
          <mxGeometry relative="1" as="geometry" />
        </mxCell>
        <mxCell id="m6tQJlwlJPIW91OM8USh-125" value="Edit account" style="ellipse;whiteSpace=wrap;html=1;fontSize=12;" vertex="1" parent="1">
          <mxGeometry x="856" y="450" width="140" height="30" as="geometry" />
        </mxCell>
        <mxCell id="m6tQJlwlJPIW91OM8USh-127" value="Do we ban members?" style="shape=card;whiteSpace=wrap;html=1;fontSize=12;fillColor=#fff2cc;strokeColor=#d6b656;" vertex="1" parent="1">
          <mxGeometry x="1030" y="400" width="78.5" height="40" as="geometry" />
        </mxCell>
        <mxCell id="m6tQJlwlJPIW91OM8USh-156" style="edgeStyle=none;rounded=0;orthogonalLoop=1;jettySize=auto;html=1;fontSize=12;startArrow=none;startFill=0;endArrow=block;endFill=0;" edge="1" parent="1" source="m6tQJlwlJPIW91OM8USh-128" target="m6tQJlwlJPIW91OM8USh-109">
          <mxGeometry relative="1" as="geometry" />
        </mxCell>
        <mxCell id="m6tQJlwlJPIW91OM8USh-128" value="Search members" style="ellipse;whiteSpace=wrap;html=1;fontSize=12;" vertex="1" parent="1">
          <mxGeometry x="733.75" y="841" width="130" height="30" as="geometry" />
        </mxCell>
        <mxCell id="m6tQJlwlJPIW91OM8USh-154" style="edgeStyle=none;rounded=0;orthogonalLoop=1;jettySize=auto;html=1;entryX=0;entryY=0;entryDx=0;entryDy=0;fontSize=12;startArrow=none;startFill=0;endArrow=block;endFill=0;" edge="1" parent="1" source="m6tQJlwlJPIW91OM8USh-129" target="m6tQJlwlJPIW91OM8USh-124">
          <mxGeometry relative="1" as="geometry" />
        </mxCell>
        <mxCell id="m6tQJlwlJPIW91OM8USh-129" value="Search account" style="ellipse;whiteSpace=wrap;html=1;fontSize=12;" vertex="1" parent="1">
          <mxGeometry x="861" y="400" width="130" height="30" as="geometry" />
        </mxCell>
        <mxCell id="m6tQJlwlJPIW91OM8USh-170" style="edgeStyle=none;rounded=0;orthogonalLoop=1;jettySize=auto;html=1;entryX=0;entryY=1;entryDx=0;entryDy=0;fontSize=12;startArrow=none;startFill=0;endArrow=block;endFill=0;exitX=1;exitY=0;exitDx=0;exitDy=0;" edge="1" parent="1" source="m6tQJlwlJPIW91OM8USh-130" target="m6tQJlwlJPIW91OM8USh-124">
          <mxGeometry relative="1" as="geometry" />
        </mxCell>
        <mxCell id="m6tQJlwlJPIW91OM8USh-130" value="Authorize account" style="ellipse;whiteSpace=wrap;html=1;fontSize=12;" vertex="1" parent="1">
          <mxGeometry x="870" y="535" width="140" height="30" as="geometry" />
        </mxCell>
        <mxCell id="m6tQJlwlJPIW91OM8USh-148" style="edgeStyle=none;rounded=0;orthogonalLoop=1;jettySize=auto;html=1;fontSize=12;startArrow=none;startFill=0;endArrow=none;endFill=0;" edge="1" parent="1" source="m6tQJlwlJPIW91OM8USh-133" target="m6tQJlwlJPIW91OM8USh-7">
          <mxGeometry relative="1" as="geometry" />
        </mxCell>
        <mxCell id="m6tQJlwlJPIW91OM8USh-133" value="Answer questions" style="ellipse;whiteSpace=wrap;html=1;fontSize=12;" vertex="1" parent="1">
          <mxGeometry x="1070" y="130" width="130" height="40" as="geometry" />
        </mxCell>
        <mxCell id="m6tQJlwlJPIW91OM8USh-141" style="edgeStyle=none;rounded=0;orthogonalLoop=1;jettySize=auto;html=1;entryX=0.038;entryY=0.312;entryDx=0;entryDy=0;entryPerimeter=0;fontSize=12;startArrow=none;startFill=0;endArrow=block;endFill=0;" edge="1" parent="1" source="m6tQJlwlJPIW91OM8USh-134" target="m6tQJlwlJPIW91OM8USh-133">
          <mxGeometry relative="1" as="geometry" />
        </mxCell>
        <mxCell id="m6tQJlwlJPIW91OM8USh-134" value="View questions" style="ellipse;whiteSpace=wrap;html=1;fontSize=12;" vertex="1" parent="1">
          <mxGeometry x="920" y="100" width="130" height="40" as="geometry" />
        </mxCell>
        <mxCell id="m6tQJlwlJPIW91OM8USh-142" style="edgeStyle=none;rounded=0;orthogonalLoop=1;jettySize=auto;html=1;fontSize=12;startArrow=none;startFill=0;endArrow=block;endFill=0;" edge="1" parent="1" source="m6tQJlwlJPIW91OM8USh-135">
          <mxGeometry relative="1" as="geometry">
            <mxPoint x="1070" y="150" as="targetPoint" />
          </mxGeometry>
        </mxCell>
        <mxCell id="m6tQJlwlJPIW91OM8USh-135" value="Reply questions" style="ellipse;whiteSpace=wrap;html=1;fontSize=12;" vertex="1" parent="1">
          <mxGeometry x="920" y="150" width="130" height="40" as="geometry" />
        </mxCell>
        <mxCell id="m6tQJlwlJPIW91OM8USh-138" style="edgeStyle=none;rounded=0;orthogonalLoop=1;jettySize=auto;html=1;entryX=0.021;entryY=0.399;entryDx=0;entryDy=0;entryPerimeter=0;fontSize=12;startArrow=none;startFill=0;endArrow=block;endFill=0;" edge="1" parent="1" source="m6tQJlwlJPIW91OM8USh-136" target="m6tQJlwlJPIW91OM8USh-119">
          <mxGeometry relative="1" as="geometry" />
        </mxCell>
        <mxCell id="m6tQJlwlJPIW91OM8USh-136" value="View completed workouts" style="ellipse;whiteSpace=wrap;html=1;fontSize=12;" vertex="1" parent="1">
          <mxGeometry x="728.75" y="960" width="150" height="40" as="geometry" />
        </mxCell>
        <mxCell id="m6tQJlwlJPIW91OM8USh-139" style="edgeStyle=none;rounded=0;orthogonalLoop=1;jettySize=auto;html=1;entryX=0.024;entryY=0.628;entryDx=0;entryDy=0;entryPerimeter=0;fontSize=12;startArrow=none;startFill=0;endArrow=block;endFill=0;" edge="1" parent="1" source="m6tQJlwlJPIW91OM8USh-137" target="m6tQJlwlJPIW91OM8USh-119">
          <mxGeometry relative="1" as="geometry" />
        </mxCell>
        <mxCell id="m6tQJlwlJPIW91OM8USh-137" value="View tracked meals" style="ellipse;whiteSpace=wrap;html=1;fontSize=12;" vertex="1" parent="1">
          <mxGeometry x="728.75" y="1017" width="150" height="40" as="geometry" />
        </mxCell>
        <mxCell id="m6tQJlwlJPIW91OM8USh-140" value="Do we need a to-do checklist?" style="shape=card;whiteSpace=wrap;html=1;fontSize=12;fillColor=#fff2cc;strokeColor=#d6b656;" vertex="1" parent="1">
          <mxGeometry x="580" y="825" width="78.5" height="40" as="geometry" />
        </mxCell>
        <mxCell id="m6tQJlwlJPIW91OM8USh-149" style="edgeStyle=none;rounded=0;orthogonalLoop=1;jettySize=auto;html=1;fontSize=12;startArrow=none;startFill=0;endArrow=none;endFill=0;" edge="1" parent="1" source="m6tQJlwlJPIW91OM8USh-143" target="m6tQJlwlJPIW91OM8USh-7">
          <mxGeometry relative="1" as="geometry" />
        </mxCell>
        <mxCell id="m6tQJlwlJPIW91OM8USh-143" value="Manage blogs" style="ellipse;whiteSpace=wrap;html=1;fontSize=12;" vertex="1" parent="1">
          <mxGeometry x="1080" y="223" width="130" height="40" as="geometry" />
        </mxCell>
        <mxCell id="m6tQJlwlJPIW91OM8USh-150" style="edgeStyle=none;rounded=0;orthogonalLoop=1;jettySize=auto;html=1;entryX=0.058;entryY=0.267;entryDx=0;entryDy=0;entryPerimeter=0;fontSize=12;startArrow=none;startFill=0;endArrow=block;endFill=0;" edge="1" parent="1" source="m6tQJlwlJPIW91OM8USh-144" target="m6tQJlwlJPIW91OM8USh-143">
          <mxGeometry relative="1" as="geometry" />
        </mxCell>
        <mxCell id="m6tQJlwlJPIW91OM8USh-144" value="View blogs" style="ellipse;whiteSpace=wrap;html=1;fontSize=12;" vertex="1" parent="1">
          <mxGeometry x="920" y="200" width="120" height="30" as="geometry" />
        </mxCell>
        <mxCell id="m6tQJlwlJPIW91OM8USh-151" style="edgeStyle=none;rounded=0;orthogonalLoop=1;jettySize=auto;html=1;entryX=0;entryY=0.5;entryDx=0;entryDy=0;fontSize=12;startArrow=none;startFill=0;endArrow=block;endFill=0;" edge="1" parent="1" source="m6tQJlwlJPIW91OM8USh-145" target="m6tQJlwlJPIW91OM8USh-143">
          <mxGeometry relative="1" as="geometry" />
        </mxCell>
        <mxCell id="m6tQJlwlJPIW91OM8USh-145" value="Edit blogs" style="ellipse;whiteSpace=wrap;html=1;fontSize=12;" vertex="1" parent="1">
          <mxGeometry x="920" y="240" width="120" height="30" as="geometry" />
        </mxCell>
        <mxCell id="m6tQJlwlJPIW91OM8USh-152" style="edgeStyle=none;rounded=0;orthogonalLoop=1;jettySize=auto;html=1;entryX=0.056;entryY=0.683;entryDx=0;entryDy=0;entryPerimeter=0;fontSize=12;startArrow=none;startFill=0;endArrow=block;endFill=0;exitX=0.91;exitY=0.215;exitDx=0;exitDy=0;exitPerimeter=0;" edge="1" parent="1" source="m6tQJlwlJPIW91OM8USh-146" target="m6tQJlwlJPIW91OM8USh-143">
          <mxGeometry relative="1" as="geometry" />
        </mxCell>
        <mxCell id="m6tQJlwlJPIW91OM8USh-146" value="Archive blogs" style="ellipse;whiteSpace=wrap;html=1;fontSize=12;" vertex="1" parent="1">
          <mxGeometry x="920" y="280" width="120" height="30" as="geometry" />
        </mxCell>
        <mxCell id="m6tQJlwlJPIW91OM8USh-161" style="edgeStyle=none;rounded=0;orthogonalLoop=1;jettySize=auto;html=1;entryX=1;entryY=1;entryDx=0;entryDy=0;fontSize=12;startArrow=none;startFill=0;endArrow=none;endFill=0;" edge="1" parent="1" source="m6tQJlwlJPIW91OM8USh-119" target="m6tQJlwlJPIW91OM8USh-119">
          <mxGeometry relative="1" as="geometry" />
        </mxCell>
        <mxCell id="m6tQJlwlJPIW91OM8USh-163" value="&amp;lt;&amp;lt;extends&amp;gt;&amp;gt;" style="text;html=1;strokeColor=none;fillColor=none;align=center;verticalAlign=middle;whiteSpace=wrap;rounded=0;fontSize=12;" vertex="1" parent="1">
          <mxGeometry x="861" y="888" width="60" height="30" as="geometry" />
        </mxCell>
        <mxCell id="m6tQJlwlJPIW91OM8USh-168" style="edgeStyle=none;rounded=0;orthogonalLoop=1;jettySize=auto;html=1;entryX=0.059;entryY=0.757;entryDx=0;entryDy=0;entryPerimeter=0;fontSize=12;startArrow=none;startFill=0;endArrow=block;endFill=0;" edge="1" parent="1" source="m6tQJlwlJPIW91OM8USh-167" target="m6tQJlwlJPIW91OM8USh-124">
          <mxGeometry relative="1" as="geometry" />
        </mxCell>
        <mxCell id="m6tQJlwlJPIW91OM8USh-167" value="Deactivate account" style="ellipse;whiteSpace=wrap;html=1;fontSize=12;" vertex="1" parent="1">
          <mxGeometry x="856" y="490" width="140" height="30" as="geometry" />
        </mxCell>
        <mxCell id="m6tQJlwlJPIW91OM8USh-171" value="Do blogs have to go thru reviews before posting?" style="shape=card;whiteSpace=wrap;html=1;fontSize=12;fillColor=#fff2cc;strokeColor=#d6b656;" vertex="1" parent="1">
          <mxGeometry x="765" y="190" width="170" height="53" as="geometry" />
        </mxCell>
        <mxCell id="m6tQJlwlJPIW91OM8USh-173" style="edgeStyle=none;rounded=0;orthogonalLoop=1;jettySize=auto;html=1;entryX=0.712;entryY=1.017;entryDx=0;entryDy=0;entryPerimeter=0;fontSize=12;startArrow=none;startFill=0;endArrow=block;endFill=0;exitX=0.083;exitY=0.217;exitDx=0;exitDy=0;exitPerimeter=0;" edge="1" parent="1" source="m6tQJlwlJPIW91OM8USh-172" target="m6tQJlwlJPIW91OM8USh-46">
          <mxGeometry relative="1" as="geometry" />
        </mxCell>
        <mxCell id="m6tQJlwlJPIW91OM8USh-172" value="View health profile" style="ellipse;whiteSpace=wrap;html=1;fontSize=12;" vertex="1" parent="1">
          <mxGeometry x="470" y="940" width="140" height="40" as="geometry" />
        </mxCell>
        <mxCell id="m6tQJlwlJPIW91OM8USh-179" style="edgeStyle=none;rounded=0;orthogonalLoop=1;jettySize=auto;html=1;fontSize=12;startArrow=none;startFill=0;endArrow=block;endFill=0;entryX=0.5;entryY=1;entryDx=0;entryDy=0;" edge="1" parent="1" source="m6tQJlwlJPIW91OM8USh-177" target="m6tQJlwlJPIW91OM8USh-172">
          <mxGeometry relative="1" as="geometry" />
        </mxCell>
        <mxCell id="m6tQJlwlJPIW91OM8USh-177" value="View BMI" style="ellipse;whiteSpace=wrap;html=1;fontSize=12;" vertex="1" parent="1">
          <mxGeometry x="495" y="1000" width="90" height="30" as="geometry" />
        </mxCell>
      </root>
    </mxGraphModel>
  </diagram>
</mxfile>
